<svg xmlns="http://www.w3.org/2000/svg" width="31.201" height="31.201" viewBox="0 0 31.201 31.201"><ellipse cx="13" cy="12.5" rx="13" ry="12.5" transform="translate(2.908 3.688)" fill="#2393b9"/><path d="M212.972,209.986A2.986,2.986,0,1,1,209.986,207,2.986,2.986,0,0,1,212.972,209.986Zm0,0" transform="translate(-194.386 -194.386)" fill="#fff"/><path d="M149.812,137.549a2.966,2.966,0,0,0-1.7-1.7,4.956,4.956,0,0,0-1.663-.308c-.945-.043-1.228-.052-3.62-.052s-2.675.009-3.62.052a4.959,4.959,0,0,0-1.663.309,2.968,2.968,0,0,0-1.7,1.7,4.957,4.957,0,0,0-.308,1.663c-.043.945-.052,1.228-.052,3.62s.009,2.675.052,3.62a4.956,4.956,0,0,0,.308,1.663,2.967,2.967,0,0,0,1.7,1.7,4.951,4.951,0,0,0,1.663.309c.945.043,1.228.052,3.62.052s2.676-.009,3.62-.052a4.951,4.951,0,0,0,1.663-.309,2.966,2.966,0,0,0,1.7-1.7,4.961,4.961,0,0,0,.309-1.663c.043-.945.052-1.228.052-3.62s-.009-2.675-.052-3.62A4.95,4.95,0,0,0,149.812,137.549Zm-6.983,9.883a4.6,4.6,0,1,1,4.6-4.6A4.6,4.6,0,0,1,142.829,147.432Zm4.782-8.307a1.075,1.075,0,1,1,1.075-1.075A1.075,1.075,0,0,1,147.61,139.125Zm0,0" transform="translate(-127.228 -127.232)" fill="#fff"/><path d="M15.6,0A15.6,15.6,0,1,0,31.2,15.6,15.6,15.6,0,0,0,15.6,0Zm8.9,19.294a6.572,6.572,0,0,1-.416,2.175,4.58,4.58,0,0,1-2.62,2.62,6.577,6.577,0,0,1-2.174.416c-.955.044-1.26.054-3.693.054s-2.738-.01-3.694-.054a6.577,6.577,0,0,1-2.174-.416,4.58,4.58,0,0,1-2.62-2.62A6.571,6.571,0,0,1,6.7,19.294c-.044-.956-.054-1.261-.054-3.694s.01-2.738.054-3.693a6.573,6.573,0,0,1,.416-2.175,4.584,4.584,0,0,1,2.62-2.62A6.578,6.578,0,0,1,11.907,6.7c.955-.044,1.26-.054,3.693-.054s2.738.01,3.693.054a6.58,6.58,0,0,1,2.175.416,4.582,4.582,0,0,1,2.62,2.62,6.572,6.572,0,0,1,.417,2.175c.044.955.054,1.26.054,3.693S24.548,18.339,24.5,19.294Zm0,0" fill="#fff"/></svg>