<svg xmlns="http://www.w3.org/2000/svg" width="31.102" height="31.102" viewBox="0 0 31.102 31.102"><path d="M15.551,0A15.551,15.551,0,1,1,0,15.551,15.551,15.551,0,0,1,15.551,0Z" transform="translate(0)" fill="#fff"/><path d="M81.949,86.421h2.912V76.716H81.949ZM93.293,76.38a4.371,4.371,0,0,0-3.575,1.655V76.684H86.8v9.738h2.923V81.156a2.312,2.312,0,0,1,2.3-2.2c1.277,0,1.592,1.086,1.592,2.171v5.292h2.912V80.912C96.519,77.085,94.707,76.38,93.293,76.38Zm-9.9-.634a1.458,1.458,0,1,0-1.458-1.458A1.458,1.458,0,0,0,83.391,75.746Z" transform="translate(-73.186 -65.055)" fill="#2393b9"/></svg>