<svg xmlns="http://www.w3.org/2000/svg" width="31.413" height="31.413" viewBox="0 0 31.413 31.413"><path d="M15.707,0A15.707,15.707,0,1,1,0,15.707,15.707,15.707,0,0,1,15.707,0Z" fill="#fff"/><path d="M82.365,83.729a7.821,7.821,0,0,1-2.2.586,3.745,3.745,0,0,0,1.684-2.057,7.76,7.76,0,0,1-2.432.9,3.877,3.877,0,0,0-2.794-1.172A3.771,3.771,0,0,0,72.8,85.7a3.6,3.6,0,0,0,.1.847,10.979,10.979,0,0,1-7.889-3.882,3.608,3.608,0,0,0-.518,1.867,3.684,3.684,0,0,0,1.7,3.091,3.891,3.891,0,0,1-1.735-.465v.047a3.747,3.747,0,0,0,3.071,3.643,3.957,3.957,0,0,1-1.008.131,3.86,3.86,0,0,1-.72-.067,3.817,3.817,0,0,0,3.576,2.58,7.825,7.825,0,0,1-4.754,1.59,8.046,8.046,0,0,1-.914-.052,11.077,11.077,0,0,0,5.868,1.67A10.651,10.651,0,0,0,80.467,86.132l-.011-.481A7.639,7.639,0,0,0,82.365,83.729Z" transform="translate(-56.838 -73.147)" fill="#2393b9"/></svg>