<svg xmlns="http://www.w3.org/2000/svg" width="31.102" height="31.102" viewBox="0 0 31.102 31.102"><path d="M15.551,0A15.551,15.551,0,1,1,0,15.551,15.551,15.551,0,0,1,15.551,0Z" fill="#fff"/><path d="M72.122,61.468a1.831,1.831,0,0,0,1.159-.379,1.109,1.109,0,0,0,.42-.918V57.812a1.036,1.036,0,0,0-.428-.854,1.753,1.753,0,0,0-1.1-.33A1.976,1.976,0,0,0,71,56.94a.987.987,0,0,0-.437.845v2.366a1.13,1.13,0,0,0,.426.926A1.77,1.77,0,0,0,72.122,61.468ZM71.608,57.9a.252.252,0,0,1,.139-.219.7.7,0,0,1,.362-.083.792.792,0,0,1,.39.083.249.249,0,0,1,.148.219v2.241a.3.3,0,0,1-.146.261.718.718,0,0,1-.392.094.624.624,0,0,1-.371-.093.3.3,0,0,1-.129-.262Zm3.768,3.565a1.213,1.213,0,0,0,.532-.2,1.989,1.989,0,0,0,.53-.441v.524h.918V56.621h-.918V60.21a1.3,1.3,0,0,1-.283.254.522.522,0,0,1-.257.1.215.215,0,0,1-.187-.076.393.393,0,0,1-.06-.241V56.622h-.917v3.951a1.042,1.042,0,0,0,.161.633A.6.6,0,0,0,75.376,61.465Zm2.671,1.955h-11.1a3.134,3.134,0,0,0-3.195,3.069v2.6a3.134,3.134,0,0,0,3.195,3.07h11.1a3.135,3.135,0,0,0,3.195-3.07v-2.6A3.135,3.135,0,0,0,78.047,63.419ZM68.6,66.053h-.982v4.065h-.95V66.053h-.982V65.36H68.6S68.6,66.053,68.6,66.053Zm2.929,4.121H70.505v-.422a2.186,2.186,0,0,1-.592.355,1.553,1.553,0,0,1-.594.123.742.742,0,0,1-.535-.173.68.68,0,0,1-.18-.513V66.335h1.023v2.944a.267.267,0,0,0,.062.2.3.3,0,0,0,.211.06.706.706,0,0,0,.286-.081,1.312,1.312,0,0,0,.318-.206V66.334h1.023S71.528,70.174,71.528,70.174Zm3.874-.731a.717.717,0,0,1-.238.578,1.027,1.027,0,0,1-.686.2,1.668,1.668,0,0,1-.53-.077,1.332,1.332,0,0,1-.432-.241v.272H72.495V65.36h1.021v1.552a1.664,1.664,0,0,1,.433-.247,1.33,1.33,0,0,1,.467-.085,1.062,1.062,0,0,1,.732.225.845.845,0,0,1,.255.665ZM79.3,68.36H77.411v.694a.63.63,0,0,0,.1.4.428.428,0,0,0,.334.112.49.49,0,0,0,.344-.1.624.624,0,0,0,.1-.421v-.167H79.3v.189a1,1,0,0,1-.372.852,1.8,1.8,0,0,1-1.107.286,1.632,1.632,0,0,1-1.044-.3,1.008,1.008,0,0,1-.381-.834V67.421a.925.925,0,0,1,.42-.781,1.8,1.8,0,0,1,1.079-.3,1.686,1.686,0,0,1,1.041.279.951.951,0,0,1,.363.8S79.3,68.36,79.3,68.36ZM68.049,61.478h1.16V58.653l1.35-3.985H69.38l-.717,2.723h-.074l-.752-2.723H66.667l1.382,4.112S68.049,61.478,68.049,61.478Zm5.89,5.666-.215.035-.209.108V69.5a.89.89,0,0,0,.24.125l.244.038a.4.4,0,0,0,.273-.076.307.307,0,0,0,.087-.243V67.51a.337.337,0,0,0-.106-.273A.479.479,0,0,0,73.939,67.145Z" transform="translate(-56.947 -48.832)" fill="#2393b9"/><path d="M192.546,170.021a.468.468,0,0,0-.338.1.445.445,0,0,0-.1.33v.371h.872v-.371a.371.371,0,0,0-.432-.432Z" transform="translate(-171.597 -151.869)" fill="#2393b9"/></svg>